<svg version="1.1" id="Layer_1" xmlns="http://www.w3.org/2000/svg" xmlns:xlink="http://www.w3.org/1999/xlink" x="0px" y="0px"
	 width="100%" viewBox="0 0 416 464" enable-background="new 0 0 416 464" xml:space="preserve">
<path fill="#000000" opacity="1.000000" stroke="none" 
	d="
M195.771942,428.639893 
	C191.702713,434.692474 186.232788,437.155121 179.391632,437.122040 
	C165.230408,437.053558 151.068542,437.135834 136.907104,437.093414 
	C126.572670,437.062439 121.295860,433.283508 117.820335,423.508911 
	C113.749313,412.059509 109.640663,400.622253 105.727158,389.118896 
	C104.696228,386.088593 103.009331,384.000946 100.299713,382.337311 
	C82.132538,371.183197 64.139992,359.740295 45.855442,348.783813 
	C38.027122,344.092926 34.470642,337.904816 34.591122,328.747467 
	C34.886982,306.259491 34.687355,283.764954 34.689251,261.273071 
	C34.690491,246.612656 39.514805,240.760361 54.227715,239.975693 
	C62.526821,239.533112 68.141113,236.540817 72.560661,229.633713 
	C76.315369,223.765625 80.926125,218.425049 85.374924,213.029846 
	C87.588448,210.345444 87.758728,208.032181 86.224396,204.886246 
	C80.458145,193.063278 74.898811,181.137573 69.394394,169.189331 
	C64.397118,158.341949 69.369080,147.905685 80.883461,145.220856 
	C98.638504,141.080872 116.390862,140.168320 134.098770,145.704712 
	C138.410614,147.052826 142.741302,148.438416 146.549316,150.780289 
	C150.555862,153.244278 153.860794,152.602081 157.659088,150.418030 
	C171.617126,142.392059 186.579346,136.709534 202.279037,133.391602 
	C258.332520,121.545410 309.903168,131.846436 354.289093,168.507080 
	C389.150757,197.301132 407.619415,235.038116 405.102631,281.181610 
	C403.465332,311.200439 392.687714,338.029785 372.798676,360.680939 
	C366.212036,368.182312 363.566315,377.117035 360.152985,385.881744 
	C355.319580,398.292877 350.838684,410.841095 346.175995,423.319092 
	C342.408478,433.401520 337.017456,437.089691 326.102081,437.100250 
	C313.773193,437.112122 301.444275,437.125031 289.115417,437.099182 
	C278.950714,437.077850 273.764465,433.621307 269.922241,424.250275 
	C268.470184,420.708801 266.844299,417.174713 265.964111,413.478546 
	C264.809357,408.629578 261.988983,407.739990 257.525421,408.224030 
	C243.620911,409.731873 229.708389,411.569092 215.754974,412.082184 
	C206.366425,412.427399 200.394958,415.684387 197.855438,424.817993 
	C197.508011,426.067566 196.615631,427.165588 195.771942,428.639893 
M67.239662,301.499939 
	C67.241333,307.330688 67.396271,313.166931 67.186089,318.990051 
	C67.063728,322.380096 68.216919,324.379364 71.218315,326.177216 
	C88.936531,336.790619 106.491760,347.675690 124.145088,358.398132 
	C128.758408,361.200165 131.982986,364.981964 133.698151,370.114014 
	C136.018112,377.055695 138.416153,383.971436 140.809753,390.888275 
	C145.311646,403.897522 145.352127,403.306671 159.235428,404.058350 
	C168.554138,404.562897 174.593369,402.393555 177.684326,392.891632 
	C179.978134,385.840179 185.759903,382.206726 193.306488,381.532715 
	C202.744583,380.689789 212.159378,379.587921 221.595932,378.725677 
	C237.986816,377.227966 254.400757,375.969391 270.777191,374.331970 
	C279.861481,373.423645 286.799805,377.156921 290.228271,385.649719 
	C292.035065,390.125488 293.850037,394.612579 295.325226,399.202606 
	C296.395416,402.532471 298.106201,404.169922 301.784210,403.929077 
	C305.932373,403.657440 310.117188,403.686523 314.272980,403.874298 
	C317.450043,404.017914 319.090424,402.754700 320.142975,399.769012 
	C323.186279,391.136292 326.355865,382.543030 329.706726,374.025055 
	C334.424255,362.033112 337.851135,349.689636 347.406433,339.791473 
	C362.831909,323.812469 370.883453,303.778687 372.482635,281.781738 
	C374.903931,248.476593 362.984924,220.455505 338.526276,197.807480 
	C317.748505,178.567856 293.112610,167.269608 265.233765,162.994659 
	C235.847626,158.488586 207.546112,162.130676 180.555527,174.884018 
	C179.381332,175.438858 177.989853,175.775223 177.527878,177.829727 
	C180.900589,183.537918 181.388428,189.866211 177.628403,195.913940 
	C171.625900,205.568558 157.917542,205.857941 151.049149,196.317535 
	C141.787262,183.452484 129.724655,175.535583 113.866196,173.635376 
	C112.163567,173.431366 110.386993,173.150192 109.144104,174.456009 
	C107.638237,176.038132 109.117836,177.597931 109.774467,179.012634 
	C113.350174,186.716324 116.866661,194.453110 120.682755,202.038025 
	C124.378448,209.383636 123.763054,216.019699 118.655411,222.481934 
	C109.157455,234.498840 99.663284,246.524460 90.461761,258.767548 
	C85.632492,265.193115 80.221230,270.114136 71.698425,270.326904 
	C68.391327,270.409454 67.132965,272.188171 67.192955,275.510956 
	C67.343277,283.838196 67.241074,292.169983 67.239662,301.499939 
z"/>
<path fill="#000000" opacity="1.000000" stroke="none" 
	d="
M366.463562,110.944839 
	C364.941284,123.408852 361.414276,134.703995 354.396301,144.830032 
	C352.113251,148.124130 350.291504,149.232635 347.054901,146.035339 
	C344.698639,143.707672 342.002686,141.668976 339.247559,139.814346 
	C336.065430,137.672287 335.929901,135.746307 338.095795,132.517929 
	C349.944458,114.856628 349.298523,91.428192 336.247925,74.609879 
	C324.644440,59.656536 308.764252,52.723026 290.203644,54.702366 
	C270.852417,56.766022 256.486176,67.178322 248.418747,85.393326 
	C245.196716,92.668137 243.320541,100.218025 244.283813,108.209953 
	C244.753616,112.107651 243.032120,113.819870 239.443909,113.995522 
	C234.816696,114.222031 230.311249,115.986214 225.493546,115.127014 
	C223.853668,113.017952 223.915054,110.479813 223.840530,108.032562 
	C222.689651,70.241028 250.834412,38.628468 287.325470,34.513290 
	C323.964020,30.381485 363.630035,56.446262 366.788757,101.571587 
	C366.996796,104.542976 366.608978,107.556068 366.463562,110.944839 
z"/>
</svg>