<svg version="1.1" id="Layer_1" xmlns="http://www.w3.org/2000/svg" xmlns:xlink="http://www.w3.org/1999/xlink" x="0px" y="0px"
	 width="100%" viewBox="0 0 1024 768" enable-background="new 0 0 1024 768" xml:space="preserve">
<path fill="#000000" opacity="1.000000" stroke="none" 
	d="
M653.520630,287.699646 
	C661.833801,321.873047 654.000488,352.046173 632.646057,378.898285 
	C628.512329,384.096191 625.376587,389.489410 623.159058,395.658661 
	C619.217712,406.623962 615.062134,417.513702 610.882874,428.391541 
	C607.679993,436.727905 603.856750,439.299927 595.057556,439.320007 
	C585.395386,439.342041 575.729797,439.171783 566.071838,439.374756 
	C558.914368,439.525146 554.495911,436.029266 551.783875,429.794891 
	C551.253357,428.575317 550.855225,427.298370 550.391296,426.049622 
	C546.752991,416.257019 546.737488,416.353851 536.421204,417.531830 
	C527.001770,418.607391 517.562805,419.581696 508.107513,420.245544 
	C502.893799,420.611572 498.918365,421.894104 497.009521,427.435577 
	C493.861847,436.573273 487.213959,440.009766 477.585907,439.449951 
	C467.790070,438.880402 457.935333,439.358063 448.106750,439.306488 
	C440.610687,439.267151 436.416351,436.326447 433.796356,429.197479 
	C430.752533,420.915344 427.689392,412.634613 424.932251,404.255371 
	C423.649536,400.357025 421.340698,397.786774 417.887848,395.696350 
	C404.639252,387.675354 391.622162,379.267120 378.284424,371.400482 
	C371.642792,367.483185 368.787842,362.097809 368.835419,354.589935 
	C368.944092,337.431824 368.837769,320.272491 368.868774,303.113770 
	C368.888245,292.335388 373.368713,287.422638 384.024475,286.771820 
	C389.763855,286.421295 394.518982,285.004059 397.837921,279.653259 
	C400.719360,275.007843 404.335022,270.787689 407.882935,266.596954 
	C410.061096,264.024109 410.039032,261.690247 408.645844,258.833893 
	C404.704163,250.752777 400.903503,242.602646 397.072144,234.467972 
	C391.563599,222.772156 395.503540,215.316849 408.240967,212.688293 
	C425.246246,209.179001 441.689606,210.143463 457.286560,218.321136 
	C459.779755,219.628326 461.644806,218.961197 463.780334,217.786423 
	C492.280518,202.108597 522.757263,196.751526 554.578369,202.829514 
	C598.265198,211.173920 631.784302,233.601837 649.580688,275.964600 
	C651.122070,279.633789 652.146729,283.520081 653.520630,287.699646 
M452.045807,404.612915 
	C455.219025,413.836823 455.219025,413.837006 465.052460,413.823425 
	C466.385315,413.821564 467.746002,413.639740 469.046051,413.844543 
	C473.940552,414.615784 476.914795,412.586975 478.505157,407.967438 
	C481.297577,399.856171 487.420593,396.539490 495.661743,395.857025 
	C513.896973,394.346985 532.104553,392.504700 550.336121,390.946106 
	C560.798035,390.051727 564.719116,392.668274 568.561951,402.507629 
	C573.118042,414.172882 573.116333,414.045074 584.927246,413.891022 
	C588.382202,413.845917 589.895752,412.500214 590.968933,409.360504 
	C593.714111,401.328827 596.902893,393.449860 599.735291,385.446503 
	C602.641541,377.234802 606.516235,369.891052 612.499573,363.197113 
	C625.271729,348.907928 631.866272,331.537781 631.427246,312.414490 
	C630.714172,281.354706 615.115845,258.572083 589.270569,242.431427 
	C568.361023,229.373230 545.327454,224.542847 520.911133,226.362747 
	C508.059143,227.320679 495.587799,230.233780 483.853271,235.820770 
	C481.637268,236.875854 479.878571,237.633652 481.027405,240.958252 
	C483.515533,248.158463 481.162720,254.089890 475.247040,257.119873 
	C469.341248,260.144806 463.525879,258.472870 458.717743,252.201248 
	C455.230804,247.652908 451.208160,243.701645 446.285461,240.771469 
	C440.359192,237.243912 433.900482,235.706467 426.773132,235.449265 
	C426.733093,238.058395 427.599182,239.664566 428.371490,241.289612 
	C430.945007,246.704681 433.478455,252.139633 436.123260,257.519806 
	C439.007538,263.387085 438.253967,268.667908 434.200500,273.775909 
	C426.332001,283.691467 418.622375,293.733093 410.850311,303.725128 
	C407.963959,307.435944 404.391144,310.053406 399.539459,310.215149 
	C395.434906,310.351959 394.219177,312.359436 394.304504,316.290009 
	C394.521393,326.281799 394.556000,336.285126 394.315125,346.275452 
	C394.223389,350.081360 395.409180,352.382202 398.742981,354.304932 
	C407.830750,359.546204 416.792175,365.016968 425.673370,370.603851 
	C447.823669,384.538025 442.496857,377.613556 452.045807,404.612915 
z"/>
<path fill="#000000" opacity="1.000000" stroke="none" 
	d="
M537.002441,658.062622 
	C522.914734,657.848999 525.914246,659.694153 521.026184,647.482544 
	C514.104736,630.190918 507.353790,612.830994 500.017120,594.197815 
	C500.017120,607.951538 498.519348,620.560303 500.605865,632.545166 
	C501.768127,639.221069 503.135010,645.792053 503.418030,652.624023 
	C503.592804,656.843689 501.932495,658.226074 497.905090,658.110718 
	C491.078857,657.915222 484.242950,657.999329 477.411835,658.056946 
	C474.121735,658.084656 472.503418,656.827209 472.655701,653.313965 
	C472.835907,649.156311 472.677795,644.984436 472.695526,640.818909 
	C472.699036,639.990662 472.517059,638.892883 472.957062,638.376404 
	C478.016693,632.436829 475.907471,625.331360 475.994202,618.726440 
	C476.245941,599.567749 476.056122,580.403381 476.043701,561.241211 
	C476.041870,558.397278 475.126587,555.997192 473.917297,553.321838 
	C471.190094,547.288330 472.721466,540.607849 473.094269,534.192505 
	C473.186249,532.609863 475.038696,532.461609 476.325348,532.435486 
	C483.482941,532.290283 490.642548,532.232544 497.801727,532.183655 
	C501.266907,532.159973 502.035187,534.952209 502.998260,537.412964 
	C509.249146,553.384766 515.459534,569.372437 521.696472,585.349670 
	C522.719604,587.970764 523.808350,590.566223 525.798523,593.197632 
	C525.885254,591.530884 526.040405,589.864380 526.046997,588.197327 
	C526.078613,580.199341 526.100952,572.201050 526.062744,564.203125 
	C526.044006,560.271423 525.377258,556.760986 523.631409,552.880005 
	C521.084717,547.218689 522.616638,540.455872 522.977173,534.166931 
	C523.069641,532.553223 524.825928,532.288452 526.118164,532.274475 
	C533.945618,532.189392 541.774353,532.186401 549.602417,532.216614 
	C552.319153,532.227112 553.353638,533.773499 553.302368,536.416687 
	C553.215210,540.913696 554.662720,545.995056 553.048889,549.808044 
	C547.325989,563.329407 550.718567,577.268250 550.036011,590.970337 
	C549.340393,604.934448 549.547668,618.947937 549.536804,632.939941 
	C549.531738,639.427917 549.557251,645.929932 549.717102,652.400696 
	C549.835022,657.176086 548.058411,658.284729 543.987854,658.056213 
	C541.828857,657.935120 539.656494,658.052795 537.002441,658.062622 
z"/>
<path fill="#000000" opacity="1.000000" stroke="none" 
	d="
M869.332642,569.000244 
	C869.330994,576.161804 869.095764,582.834412 869.411682,589.480835 
	C869.612427,593.704102 868.467468,597.019470 865.093750,599.464233 
	C860.516663,602.781067 859.781189,606.851929 861.608276,612.101196 
	C863.296204,616.950745 864.122559,622.093933 865.494751,627.061829 
	C866.455017,630.538696 867.122925,634.093567 870.490540,636.510864 
	C872.949463,638.275940 872.083557,641.432129 872.063110,644.022278 
	C871.933350,660.458008 874.078979,657.848938 858.105530,658.090881 
	C853.776733,658.156433 849.443298,657.982117 845.116638,658.095337 
	C841.570862,658.188110 839.662415,656.746399 840.023499,653.105652 
	C840.630615,646.983276 838.086975,640.463379 842.470154,634.755493 
	C843.055725,633.992920 842.466675,632.179993 842.167786,630.913391 
	C841.098022,626.380432 839.667236,621.917908 838.856873,617.342957 
	C838.141602,613.304565 836.239502,611.864502 832.125427,611.933716 
	C820.438965,612.130432 822.239258,611.486694 822.268311,621.894714 
	C822.283997,627.524170 821.776489,632.916382 825.113831,638.574707 
	C827.893799,643.287964 826.210083,649.967346 825.626465,655.758789 
	C825.416260,657.844482 823.398071,658.012207 821.702576,658.020020 
	C814.042358,658.055237 806.381958,658.039734 798.721619,658.032349 
	C796.121094,658.029846 794.706177,656.895203 794.750061,654.106079 
	C794.823425,649.444397 794.731445,644.780029 794.804871,640.118286 
	C794.819885,639.161133 794.937439,637.773804 795.549377,637.327881 
	C799.510803,634.440552 798.645691,630.295532 798.649231,626.385803 
	C798.668762,604.735779 798.643555,583.085815 798.675476,561.435791 
	C798.679688,558.541931 798.412415,555.990112 796.140930,553.690735 
	C793.507080,551.024475 794.777161,547.326660 794.801941,544.103638 
	C794.899963,531.349182 792.681274,532.057068 806.799988,532.026794 
	C819.956482,531.998596 833.114136,532.134521 846.268921,531.986450 
	C850.367493,531.940308 853.238831,533.566589 856.516418,535.972229 
	C867.799194,544.253235 871.448242,555.142700 869.332642,569.000244 
M826.788879,555.981567 
	C823.320496,555.695801 822.103821,557.353027 822.171082,560.735718 
	C822.319885,568.224121 822.361938,575.721497 822.157532,583.207214 
	C822.052979,587.034912 823.736145,588.177490 827.239624,588.043030 
	C831.395569,587.883362 835.562561,587.941406 839.723511,587.998718 
	C843.811096,588.054993 845.919922,586.317932 845.853333,582.034363 
	C845.749817,575.377014 845.754333,568.716064 845.835815,562.058228 
	C845.887756,557.813904 843.757202,555.995422 839.711731,555.991516 
	C835.716431,555.987671 831.721069,555.973145 826.788879,555.981567 
z"/>
<path fill="#000000" opacity="1.000000" stroke="none" 
	d="
M605.392273,607.010132 
	C598.123169,606.953796 591.291992,606.869019 584.462891,606.955505 
	C581.424805,606.993896 579.288696,605.647217 576.902466,603.858459 
	C565.753784,595.501526 560.192200,584.975891 562.880432,570.824768 
	C563.063721,569.859985 563.063660,568.799805 562.880371,567.835022 
	C560.260437,554.043213 565.684692,543.792969 576.536560,535.627991 
	C579.040466,533.744019 581.328674,532.148315 584.507568,532.148560 
	C594.003296,532.149414 603.499023,532.123291 612.994690,532.144226 
	C614.662903,532.147888 616.529480,532.133911 617.758057,533.319702 
	C622.908752,538.290771 627.954041,543.372498 632.974365,548.476196 
	C634.082581,549.602783 634.129578,551.203003 634.127991,552.719971 
	C634.122192,558.051025 634.064697,563.382385 634.103271,568.713013 
	C634.125183,571.735657 633.013916,573.381958 629.707825,573.299255 
	C624.713135,573.174316 619.711975,573.204956 614.715515,573.286926 
	C611.697632,573.336365 610.772217,571.909973 610.625854,569.020081 
	C609.963013,555.938171 609.892761,555.940674 596.840454,555.949951 
	C595.341248,555.950989 593.839661,555.923279 592.343201,555.993958 
	C588.581238,556.171631 586.449646,558.082642 586.410156,561.935974 
	C586.357178,567.099915 586.337341,572.266052 586.432068,577.428894 
	C586.505615,581.439087 588.668457,583.574707 592.700806,583.609497 
	C598.697876,583.661316 604.695740,583.630249 610.693237,583.638123 
	C612.025940,583.639893 613.366455,583.567444 614.689941,583.682678 
	C619.495850,584.101501 634.036804,599.309631 634.077881,604.149780 
	C634.171326,615.144531 634.104675,626.140625 634.098633,637.136169 
	C634.098389,637.635315 634.091003,638.139343 634.024902,638.632874 
	C633.329102,643.832703 617.612244,657.987488 612.345398,658.023193 
	C603.016357,658.086487 593.686096,657.976868 584.357239,658.051270 
	C581.497925,658.074036 579.153442,657.289307 577.286804,655.074585 
	C576.430786,654.058960 575.427368,653.166687 574.481873,652.227417 
	C562.066345,639.892883 562.135620,639.896179 562.867981,622.276306 
	C563.021423,618.582214 564.195801,616.694702 568.146912,616.838379 
	C572.638916,617.001770 577.143616,616.944763 581.639221,616.835938 
	C584.950134,616.755798 586.645935,617.983704 586.383484,621.511780 
	C585.265015,636.545593 589.758484,634.695007 600.300720,634.654724 
	C610.071228,634.617371 610.656189,634.040527 610.670288,624.042786 
	C610.675232,620.544189 610.603516,617.044312 610.680054,613.547424 
	C610.756287,610.066528 609.342773,607.802429 605.392273,607.010132 
z"/>
<path fill="#000000" opacity="1.000000" stroke="none" 
	d="
M258.761108,553.394531 
	C261.178406,559.984436 263.440155,566.215271 266.221649,573.877930 
	C268.306915,568.517395 269.947479,564.473999 271.457031,560.382324 
	C274.396484,552.414856 277.353424,544.451538 280.113892,536.421448 
	C281.203491,533.251892 283.082153,531.900513 286.400818,532.029663 
	C290.226990,532.178711 294.065735,532.130310 297.895355,532.028503 
	C301.562347,531.931030 303.524872,533.230774 303.300873,537.259155 
	C303.079102,541.246399 303.229553,545.254272 303.211121,549.253052 
	C303.203308,550.945007 303.233856,552.871765 301.610413,553.748718 
	C297.294983,556.079773 296.362030,560.361938 294.914612,564.425232 
	C291.842072,573.050598 288.789520,581.685486 285.530823,590.241028 
	C284.207092,593.716370 284.210693,596.887634 285.545624,600.373535 
	C288.998566,609.390320 292.202118,618.502869 295.474823,627.588196 
	C296.712921,631.025269 297.634705,634.592712 301.442474,636.340332 
	C302.939178,637.027283 303.234344,638.641296 303.230469,640.215881 
	C303.219025,644.880981 303.176270,649.546326 303.210297,654.211121 
	C303.230713,657.007263 301.734985,658.062988 299.147705,658.054810 
	C294.482635,658.040100 289.815674,657.961365 285.153046,658.066467 
	C281.907837,658.139648 280.983978,655.946594 280.090393,653.499695 
	C276.091644,642.550476 272.058167,631.613953 268.026581,620.676697 
	C267.632721,619.608276 267.166016,618.566711 266.258179,616.356140 
	C262.638641,626.190491 259.392334,635.003723 256.151825,643.819092 
	C255.060272,646.788452 253.743973,649.701416 252.957153,652.750366 
	C251.833267,657.105530 249.220871,658.544800 244.905350,658.175598 
	C241.265152,657.864197 237.579300,658.051880 233.914093,658.078186 
	C231.058762,658.098633 229.605865,656.900391 229.665787,653.891052 
	C229.758636,649.227661 229.683517,644.561096 229.700546,639.895935 
	C229.704849,638.720276 229.684677,637.323914 230.783875,636.715088 
	C236.975357,633.285828 237.203308,626.520874 239.511475,621.010925 
	C242.273926,614.416565 244.228287,607.487183 246.882080,600.842468 
	C248.469635,596.867493 248.353271,593.275330 246.842865,589.324646 
	C243.037857,579.372131 239.531616,569.305481 235.867203,559.298645 
	C235.475403,558.228699 235.095139,556.871826 234.261505,556.290100 
	C225.677200,550.299377 231.059631,541.613098 229.936737,534.210449 
	C229.776276,533.152649 230.971802,532.583984 231.985641,532.361328 
	C232.793320,532.183899 233.630600,532.115784 234.458817,532.061279 
	C250.683975,530.992493 250.680099,530.995789 256.173981,546.479187 
	C256.953339,548.675659 257.793579,550.850525 258.761108,553.394531 
z"/>
<path fill="#000000" opacity="1.000000" stroke="none" 
	d="
M316.652496,605.999878 
	C316.641205,591.005493 316.625671,576.511169 316.623077,562.016785 
	C316.622528,558.979675 316.323364,556.195557 314.100128,553.677917 
	C311.393250,550.612549 312.781250,546.626831 312.797577,543.078247 
	C312.849609,531.754822 310.786621,532.090820 323.807281,532.073914 
	C337.468597,532.056152 351.130524,532.147217 364.790955,532.036926 
	C368.359802,532.008179 370.872253,533.445496 373.701599,535.560547 
	C384.795624,543.854065 389.393951,554.268127 387.507660,568.245911 
	C386.381500,576.591187 387.224701,585.212341 387.330811,593.707703 
	C387.364624,596.414246 386.635681,598.598694 384.544464,600.311707 
	C384.416199,600.416748 384.286346,600.530762 384.192291,600.665100 
	C375.934479,612.462036 364.700653,615.903259 350.565948,614.570312 
	C338.702728,613.451599 340.106842,612.935547 340.115997,624.542725 
	C340.119568,629.074585 340.425751,633.258057 342.583435,637.841248 
	C345.096771,643.179810 343.467651,649.944336 343.103607,656.081238 
	C343.008545,657.683594 341.299225,657.944092 339.964142,657.953430 
	C332.135559,658.008484 324.306396,658.004028 316.477509,657.987732 
	C313.741913,657.981995 312.693359,656.466797 312.739197,653.826904 
	C312.817291,649.330139 312.755432,644.830933 312.775391,640.332947 
	C312.778351,639.671265 312.654572,638.780212 313.015778,638.382935 
	C319.246429,631.530823 315.823120,623.172119 316.600403,615.491699 
	C316.900818,612.523071 316.651642,609.498840 316.652496,605.999878 
M341.275177,556.600891 
	C340.941895,557.159180 340.323334,557.714661 340.317749,558.276184 
	C340.220123,568.100281 340.183594,577.925171 340.168457,587.749878 
	C340.164703,590.175415 341.751648,590.785156 343.839539,590.778870 
	C348.504120,590.764893 353.169067,590.812683 357.833405,590.777100 
	C361.669220,590.747925 363.713379,588.800415 363.727814,584.920410 
	C363.756317,577.257019 363.702026,569.593201 363.767670,561.930237 
	C363.801300,557.999878 361.919708,555.976013 358.055054,555.976257 
	C352.730988,555.976624 347.406891,556.139343 341.275177,556.600891 
z"/>
<path fill="#000000" opacity="1.000000" stroke="none" 
	d="
M209.361374,584.596497 
	C210.793823,591.066589 210.057922,597.229919 210.148788,603.369690 
	C210.198883,606.753479 207.635315,606.871277 205.258209,606.898926 
	C198.930893,606.972595 192.599823,607.051086 186.275253,606.907227 
	C182.725296,606.826538 181.112961,607.995605 181.255936,611.797852 
	C181.487350,617.950928 181.439972,624.121704 181.281876,630.279175 
	C181.199173,633.501038 182.366211,634.905701 185.633987,634.648010 
	C190.576996,634.258179 195.394165,635.437988 200.106033,631.428162 
	C203.025757,628.943420 208.477585,630.801941 212.789474,630.752625 
	C220.149185,630.668518 220.163071,630.745117 220.185608,638.272461 
	C220.200562,643.268250 220.075684,648.266479 220.196060,653.259216 
	C220.276779,656.606262 218.977783,658.105774 215.524200,658.093750 
	C196.540070,658.027588 177.555450,658.027710 158.571381,658.102783 
	C155.080063,658.116516 153.821045,656.529968 153.907715,653.235413 
	C154.012787,649.241333 153.901581,645.242065 153.967834,641.246399 
	C153.986847,640.099670 153.873047,638.472961 154.539749,637.891479 
	C159.216171,633.813110 157.728943,628.424805 157.751877,623.452820 
	C157.847931,602.636963 157.779160,581.820374 157.780853,561.004089 
	C157.781067,558.334167 157.730591,555.921204 155.461792,553.741455 
	C152.779327,551.164185 153.962128,547.421326 153.969421,544.178528 
	C153.998138,531.404236 152.341370,532.057861 166.043884,532.044556 
	C181.864258,532.029175 197.684738,532.011108 213.505020,532.051514 
	C219.879166,532.067810 220.183502,532.426819 220.203201,538.921204 
	C220.219376,544.249939 220.127014,549.579285 220.175262,554.907471 
	C220.203064,557.979675 219.033661,559.505127 215.740829,559.381958 
	C211.250610,559.213928 206.749893,559.324036 202.253677,559.321106 
	C200.722855,559.320129 199.418213,558.967102 198.133972,557.937012 
	C193.580368,554.284729 188.267822,556.269653 183.255035,556.291077 
	C181.670074,556.297852 181.357132,557.942078 181.355377,559.349060 
	C181.346664,566.343140 181.393341,573.337463 181.338669,580.331116 
	C181.317322,583.062744 182.833664,583.669983 185.174210,583.648865 
	C191.335342,583.593079 197.497391,583.608582 203.658844,583.639648 
	C205.470779,583.648804 207.335648,583.331360 209.361374,584.596497 
z"/>
<path fill="#000000" opacity="1.000000" stroke="none" 
	d="
M414.004395,658.065918 
	C409.506927,658.045105 405.508209,657.996155 401.509735,658.013000 
	C398.513458,658.025574 396.791016,656.876099 396.863129,653.599487 
	C396.958435,649.269714 396.871918,644.936218 396.939728,640.605408 
	C396.955017,639.628784 396.936737,638.228760 397.524841,637.751099 
	C402.089722,634.043274 400.655945,628.971069 400.675903,624.319580 
	C400.766693,603.159851 400.712982,581.999634 400.746307,560.839539 
	C400.750580,558.132874 400.676697,555.694824 398.321716,553.624390 
	C395.735168,551.350403 396.811584,547.971375 396.876282,545.075317 
	C397.171021,531.878479 394.165802,532.131287 409.685944,532.081360 
	C425.347534,532.031006 441.009521,532.052734 456.671173,532.099365 
	C462.735046,532.117432 463.145813,532.592285 463.152252,538.702637 
	C463.157867,544.034180 463.154419,549.366028 463.091858,554.697021 
	C463.072723,556.326965 463.297089,558.665894 461.318481,558.911621 
	C455.050262,559.690125 448.063904,561.068298 442.637146,558.439392 
	C437.852448,556.121460 433.498810,556.302917 428.828857,555.959839 
	C425.330658,555.702759 424.162781,557.387207 424.261108,560.760864 
	C424.435730,566.753906 424.440826,572.759460 424.262695,578.752258 
	C424.158691,582.250977 425.752472,583.603149 429.001099,583.602356 
	C434.999115,583.600830 441.007080,583.830261 446.991821,583.552246 
	C451.438629,583.345642 453.534027,584.736084 453.192352,589.457336 
	C452.916473,593.269653 452.941833,597.129639 453.182892,600.946472 
	C453.454590,605.248108 451.675781,607.027100 447.414062,606.942383 
	C441.252197,606.819824 435.083405,607.045471 428.921661,606.920410 
	C425.483185,606.850647 424.154205,608.226257 424.249512,611.663513 
	C424.420380,617.823730 424.457733,623.996399 424.261139,630.154602 
	C424.147064,633.727966 425.606781,634.937134 428.994965,634.656982 
	C433.778595,634.261475 438.145905,634.535583 443.000732,631.648560 
	C447.913666,628.726929 455.015381,630.501343 461.128082,631.110107 
	C463.102509,631.306763 463.101685,633.543213 463.110809,635.218140 
	C463.142548,641.049377 462.950897,646.888184 463.188049,652.710022 
	C463.362274,656.986511 461.428406,658.143005 457.489502,658.106689 
	C443.161835,657.974548 428.832123,658.061646 414.004395,658.065918 
z"/>
<path fill="#000000" opacity="1.000000" stroke="none" 
	d="
M719.005493,547.705566 
	C719.311279,530.536194 716.452393,532.174377 734.221985,532.062317 
	C749.053711,531.968689 763.888550,532.178894 778.717834,531.967896 
	C783.682190,531.897217 785.648743,533.573242 785.297791,538.645996 
	C784.930603,543.953979 785.102905,549.308960 785.236389,554.638428 
	C785.320374,557.993958 784.112671,559.546387 780.588745,559.394043 
	C776.263672,559.207092 771.924561,559.354919 767.591797,559.323975 
	C766.270142,559.314575 764.927734,559.355652 763.824890,558.355408 
	C759.227600,554.185852 753.708191,556.327759 748.548035,556.268005 
	C746.668762,556.246216 746.384521,558.045532 746.382507,559.632324 
	C746.373901,566.465027 746.408813,573.297974 746.361023,580.130310 
	C746.339905,583.148438 748.161072,583.652649 750.622681,583.634705 
	C756.955200,583.588684 763.299438,583.844421 769.617554,583.538452 
	C774.111572,583.320862 775.558594,585.127258 775.296387,589.383789 
	C775.040649,593.534912 775.071655,597.720520 775.265991,601.877502 
	C775.439697,605.593201 773.755371,606.985107 770.243652,606.954773 
	C763.911438,606.900024 757.575867,607.070251 751.246277,606.933289 
	C747.627441,606.855042 746.163147,608.206665 746.294983,611.927856 
	C746.513306,618.086426 746.426453,624.259521 746.322571,630.424011 
	C746.274353,633.288086 747.161072,634.978394 750.306213,634.630981 
	C755.194458,634.091003 759.791748,635.034058 764.875366,631.778015 
	C769.837524,628.599915 777.167969,630.513794 783.437073,631.172058 
	C785.229248,631.360291 785.186523,633.403992 785.193359,634.892578 
	C785.222534,641.225159 785.138184,647.558594 785.209717,653.890503 
	C785.243713,656.899292 783.811707,658.061523 780.942810,658.056213 
	C761.777649,658.020447 742.612488,658.004150 723.447327,658.032288 
	C720.225647,658.037048 718.984619,656.476807 719.038635,653.402893 
	C719.108887,649.404663 719.002930,645.403564 719.060486,641.404907 
	C719.077026,640.255920 718.976257,638.664307 719.644287,638.036621 
	C724.260681,633.699341 722.696167,628.141479 722.730164,623.001099 
	C722.862488,603.003174 722.809265,583.004028 722.802795,563.005310 
	C722.801636,559.409485 723.487976,555.692200 719.972717,552.933533 
	C718.643616,551.890503 719.061401,549.827332 719.005493,547.705566 
z"/>
<path fill="#000000" opacity="1.000000" stroke="none" 
	d="
M697.067810,559.348816 
	C693.006165,559.238281 689.766785,559.262329 686.293091,556.944946 
	C682.635071,554.504639 677.560364,555.790833 673.115723,556.293213 
	C671.274902,556.501343 671.146301,558.340271 671.140930,559.869507 
	C671.117432,566.531494 671.201965,573.194580 671.105957,579.855286 
	C671.059326,583.089905 672.808655,583.709290 675.551758,583.669250 
	C681.879578,583.577026 688.214294,583.789612 694.537170,583.591553 
	C698.252991,583.475220 699.587036,584.932922 699.417969,588.567871 
	C699.209167,593.055359 699.151611,597.572266 699.420593,602.052917 
	C699.655823,605.971375 697.717163,606.957153 694.344543,606.923096 
	C688.349182,606.862549 682.349243,607.049377 676.357971,606.885681 
	C672.567627,606.782166 670.891724,608.121582 671.030945,612.093140 
	C671.246887,618.248230 671.159790,624.417297 671.068054,630.578430 
	C671.023682,633.554016 672.227234,634.917725 675.235168,634.650696 
	C680.017273,634.226074 684.450256,634.718262 689.353333,631.797546 
	C694.471436,628.748718 701.653015,630.441162 707.906189,631.270264 
	C709.415649,631.470398 709.314636,633.353638 709.320496,634.667480 
	C709.349304,641.163025 709.262878,647.659851 709.366211,654.153931 
	C709.412354,657.053894 707.881531,657.992798 705.358582,657.993225 
	C686.205017,657.996338 667.051392,657.976318 647.897827,657.984680 
	C645.027649,657.985962 643.629944,656.754822 643.696655,653.762512 
	C643.796814,649.267944 643.684998,644.768921 643.741028,640.272766 
	C643.753113,639.301880 643.754272,637.868713 644.339783,637.440613 
	C648.833435,634.154175 647.612488,629.424622 647.622803,625.065735 
	C647.673462,603.579895 647.636536,582.093933 647.650085,560.607971 
	C647.651672,558.085449 647.667664,555.764771 645.321777,553.893372 
	C642.744873,551.837646 643.733765,548.637085 643.715271,545.893860 
	C643.622375,532.127319 643.662415,532.116516 657.250793,532.094910 
	C671.907837,532.071533 686.564941,532.052917 701.221985,532.067017 
	C709.327820,532.074829 709.334045,532.106873 709.350586,540.425781 
	C709.359497,544.922791 709.129150,549.432800 709.400208,553.913086 
	C709.646790,557.988586 708.243469,559.806213 704.044189,559.384338 
	C701.900635,559.168945 699.717407,559.348022 697.067810,559.348816 
z"/>
<path fill="#000000" opacity="1.000000" stroke="none" 
	d="
M599.264221,154.729004 
	C586.572754,143.531815 572.488647,140.086624 556.862000,146.156158 
	C541.356262,152.178726 533.537598,164.347290 531.714172,180.497589 
	C530.667786,189.765854 530.911316,189.648056 521.636292,190.331787 
	C517.536194,190.634018 515.905762,189.229675 515.789124,185.128708 
	C514.951233,155.655472 535.642395,131.515167 563.652527,127.795517 
	C594.976990,123.635742 622.928894,145.412476 626.577637,176.753464 
	C628.115967,189.967102 624.562744,202.143173 617.161194,213.223892 
	C615.288269,216.027893 613.456726,216.212555 611.144348,213.957901 
	C611.025513,213.842041 610.886169,213.747452 610.758057,213.640900 
	C608.329590,211.621841 605.133972,210.040833 603.666748,207.472504 
	C601.822144,204.243530 605.844910,202.035568 607.022156,199.271957 
	C613.956299,182.994095 611.416016,167.222137 599.264221,154.729004 
z"/>
</svg>