<svg width="300" height="350" xmlns="http://www.w3.org/2000/svg" xml:space="preserve" enable-background="new 0 0 1024 768" version="1.1">

 <g>
  <title>Layer 1</title>
  <path id="svg_1" d="m292.52063,170.69965c8.31317,34.1734 0.47986,64.34652 -20.87457,91.19863c-4.13373,5.19791 -7.26947,10.59113 -9.487,16.76038c-3.94135,10.9653 -8.09693,21.85504 -12.27619,32.73288c-3.20288,8.33637 -7.02612,10.90839 -15.82531,10.92847c-9.66217,0.02203 -19.32776,-0.14823 -28.98572,0.05475c-7.15747,0.15039 -11.57593,-3.34549 -14.28797,-9.57987c-0.53051,-1.21957 -0.92864,-2.49652 -1.39257,-3.74527c-3.63831,-9.7926 -3.65381,-9.69577 -13.9701,-8.51779c-9.41943,1.07556 -18.85839,2.04987 -28.31369,2.71371c-5.21371,0.36603 -9.18915,1.64856 -11.09799,7.19004c-3.14767,9.13769 -9.79556,12.57419 -19.42361,12.01437c-9.79584,-0.56955 -19.65058,-0.09189 -29.47916,-0.14346c-7.49606,-0.03934 -11.6904,-2.98004 -14.31039,-10.10901c-3.04383,-8.28214 -6.10697,-16.56287 -8.86411,-24.94211c-1.28271,-3.89834 -3.59155,-6.4686 -7.0444,-8.55902c-13.2486,-8.021 -26.26569,-16.42923 -39.60343,-24.29587c-6.64163,-3.9173 -9.49658,-9.30267 -9.449,-16.81054c0.10867,-17.15812 0.00235,-34.31745 0.03335,-51.47617c0.01947,-10.77838 4.49994,-15.69113 15.1557,-16.34195c5.73938,-0.35053 10.49451,-1.76776 13.81345,-7.11856c2.88144,-4.64542 6.4971,-8.86557 10.04501,-13.05631c2.17817,-2.57284 2.1561,-4.9067 0.76291,-7.76306c-3.94168,-8.08111 -7.74234,-16.23124 -11.5737,-24.36592c-5.50854,-11.69581 -1.5686,-19.15112 11.16883,-21.77968c17.00528,-3.50929 33.44864,-2.54483 49.04559,5.63285c2.4932,1.30719 4.35825,0.64006 6.49377,-0.53472c28.50019,-15.67782 58.97693,-21.03489 90.79804,-14.95691c43.68683,8.34441 77.20593,30.77233 95.00232,73.13509c1.54138,3.66919 2.56604,7.55548 3.93994,11.73505m-201.47482,116.91326c3.17321,9.22391 3.17321,9.2241 13.00665,9.21051c1.33285,-0.00186 2.69354,-0.18368 3.99359,0.02112c4.8945,0.77124 7.86875,-1.25757 9.45911,-5.8771c2.79242,-8.11127 8.91543,-11.42795 17.15658,-12.11041c18.23523,-1.51004 36.44281,-3.35233 54.67438,-4.91092c10.46192,-0.89438 14.383,1.72216 18.22583,11.56152c4.55609,11.66525 4.55438,11.53744 16.3653,11.38339c3.45495,-0.0451 4.9685,-1.39081 6.04168,-4.53052c2.74518,-8.03167 5.93396,-15.91064 8.76636,-23.914c2.90625,-8.2117 6.78095,-15.55545 12.76428,-22.24939c12.77216,-14.28918 19.3667,-31.65933 18.92768,-50.78262c-0.71308,-31.05978 -16.3114,-53.84241 -42.15668,-69.98306c-20.90955,-13.0582 -43.94312,-17.88858 -68.35944,-16.06868c-12.85199,0.95793 -25.32333,3.87103 -37.05786,9.45802c-2.216,1.05508 -3.9747,1.81288 -2.82587,5.13748c2.48813,7.20021 0.13532,13.13164 -5.78036,16.16162c-5.90579,3.02494 -11.72116,1.353 -16.5293,-4.91862c-3.48694,-4.54834 -7.50958,-8.4996 -12.43228,-11.42978c-5.92627,-3.52756 -12.38498,-5.065 -19.51233,-5.32221c-0.04004,2.60913 0.82605,4.21531 1.59836,5.84035c2.57352,5.41507 5.10696,10.85002 7.75177,16.2302c2.88428,5.86728 2.13071,11.1481 -1.92276,16.2561c-7.8685,9.91556 -15.57813,19.95718 -23.35019,29.94922c-2.88635,3.71081 -6.45917,6.32828 -11.31085,6.49002c-4.10455,0.13681 -5.32028,2.14429 -5.23496,6.07486c0.21689,9.99179 0.2515,19.99512 0.01063,29.98544c-0.09174,3.80591 1.09405,6.10675 4.42785,8.02948c9.08777,5.24127 18.04919,10.71204 26.93039,16.29892c22.1503,13.93418 16.82349,7.00971 26.37244,34.00906z" fill="#000000"/>
  <path id="svg_11" d="m238.26422,36.729c-12.69147,-11.19719 -26.77557,-14.64238 -42.40222,-8.57284c-15.50574,6.02257 -23.3244,18.19113 -25.14783,34.34143c-1.04638,9.26826 -0.80285,9.15047 -10.07788,9.8342c-4.1001,0.30223 -5.73053,-1.10212 -5.84717,-5.20308c-0.83789,-29.47324 19.85327,-53.61354 47.86341,-57.33319c31.32446,-4.15978 59.27636,17.61696 62.92511,48.95794c1.53833,13.21364 -2.0149,25.38971 -9.41645,36.47043c-1.87292,2.804 -3.70446,2.98867 -6.01684,0.73401c-0.11884,-0.11586 -0.25818,-0.21045 -0.38629,-0.317c-2.42847,-2.01906 -5.62409,-3.60007 -7.09131,-6.1684c-1.84461,-3.22897 2.17816,-5.43693 3.35541,-8.20054c6.93414,-16.27787 4.39386,-32.04982 -7.75794,-44.54296z" fill="#000000"/>
 </g>
</svg>